# xmcd
#
# Track frame offsets: 
#        150
#        14302
#        30023
#        48987
#        68771
#        85523
#        105903
#        122108
#        140570
#        159155
#        180013
#        196645
#        211855
#        234794
#
# Disc length: 3342 seconds
#
# Revision: 0
# Processed by: cddbd v1.5.1PL2 Copyright (c) Steve Scherf et al.
# Submitted via: ExactAudioCopy v0.95b4
#
DISCID=900d0c0e
DTITLE=Banky - Back in the building
DYEAR=2006
DGENRE=R&B
TTITLE0=Intro
TTITLE1=Ay mami
TTITLE2=Don't wanna
TTITLE3=My regret
TTITLE4=Come back
TTITLE5=Loving u is crucial
TTITLE6=Hard times
TTITLE7=Leave me
TTITLE8=Oh baby (remix)
TTITLE9=I adore u
TTITLE10=Aiyyo
TTITLE11=Undeniable
TTITLE12=Thank you
TTITLE13=Your man ft. The Bosses (bonus)
EXTD=
EXTT0=
EXTT1=
EXTT2=
EXTT3=
EXTT4=
EXTT5=
EXTT6=
EXTT7=
EXTT8=
EXTT9=
EXTT10=
EXTT11=
EXTT12=
EXTT13=
PLAYORDER=
